<svg width="166" height="36" viewBox="0 0 166 36" fill="none" xmlns="http://www.w3.org/2000/svg">
<path d="M12.0059 23.1387H7.04883V33H2.60156V7.40625H11.6016C14.5547 7.40625 16.834 8.06836 18.4395 9.39258C20.0449 10.7168 20.8477 12.6328 20.8477 15.1406C20.8477 16.8516 20.4316 18.2871 19.5996 19.4473C18.7793 20.5957 17.6309 21.4805 16.1543 22.1016L21.9023 32.7715V33H17.1387L12.0059 23.1387ZM7.04883 19.5703H11.6191C13.1191 19.5703 14.291 19.1953 15.1348 18.4453C15.9785 17.6836 16.4004 16.6465 16.4004 15.334C16.4004 13.9629 16.0078 12.9023 15.2227 12.1523C14.4492 11.4023 13.2891 11.0156 11.7422 10.9922H7.04883V19.5703ZM36.1758 31.1367C34.9219 32.6133 33.1406 33.3516 30.832 33.3516C28.7695 33.3516 27.2051 32.748 26.1387 31.541C25.084 30.334 24.5566 28.5879 24.5566 26.3027V13.9805H28.8281V26.25C28.8281 28.6641 29.8301 29.8711 31.834 29.8711C33.9082 29.8711 35.3086 29.127 36.0352 27.6387V13.9805H40.3066V33H36.2812L36.1758 31.1367ZM59.8184 22.1543H49.5176V33H45.0703V7.40625H61.3301V10.9922H49.5176V18.6035H59.8184V22.1543ZM68.9941 33H64.7227V13.9805H68.9941V33ZM64.459 9.04102C64.459 8.38477 64.6641 7.83984 65.0742 7.40625C65.4961 6.97266 66.0938 6.75586 66.8672 6.75586C67.6406 6.75586 68.2383 6.97266 68.6602 7.40625C69.082 7.83984 69.293 8.38477 69.293 9.04102C69.293 9.68555 69.082 10.2246 68.6602 10.6582C68.2383 11.0801 67.6406 11.291 66.8672 11.291C66.0938 11.291 65.4961 11.0801 65.0742 10.6582C64.6641 10.2246 64.459 9.68555 64.459 9.04102Z" fill="#1C1C2E"/>
<path d="M82.4141 31.1719H95.0527V33H80.2344V7.40625H82.4141V31.1719ZM106.092 33.3516C104.475 33.3516 103.01 32.9531 101.697 32.1562C100.396 31.3594 99.3828 30.252 98.6562 28.834C97.9297 27.4043 97.5664 25.8047 97.5664 24.0352V23.2793C97.5664 21.4512 97.918 19.8047 98.6211 18.3398C99.3359 16.875 100.326 15.7266 101.592 14.8945C102.857 14.0508 104.229 13.6289 105.705 13.6289C108.014 13.6289 109.842 14.4199 111.189 16.002C112.549 17.5723 113.229 19.7227 113.229 22.4531V23.6309H99.6582V24.0352C99.6582 26.1914 100.273 27.9902 101.504 29.4316C102.746 30.8613 104.305 31.5762 106.18 31.5762C107.305 31.5762 108.295 31.3711 109.15 30.9609C110.018 30.5508 110.803 29.8945 111.506 28.9922L112.824 29.9941C111.277 32.2324 109.033 33.3516 106.092 33.3516ZM105.705 15.4219C104.123 15.4219 102.787 16.002 101.697 17.1621C100.619 18.3223 99.9629 19.8809 99.7285 21.8379H111.137V21.6094C111.078 19.7812 110.557 18.293 109.572 17.1445C108.588 15.9961 107.299 15.4219 105.705 15.4219ZM129.33 33C129.119 32.4023 128.984 31.5176 128.926 30.3457C128.188 31.3066 127.244 32.0508 126.096 32.5781C124.959 33.0938 123.752 33.3516 122.475 33.3516C120.646 33.3516 119.164 32.8418 118.027 31.8223C116.902 30.8027 116.34 29.5137 116.34 27.9551C116.34 26.1035 117.107 24.6387 118.643 23.5605C120.189 22.4824 122.34 21.9434 125.094 21.9434H128.908V19.7812C128.908 18.4219 128.486 17.3555 127.643 16.582C126.811 15.7969 125.592 15.4043 123.986 15.4043C122.521 15.4043 121.309 15.7793 120.348 16.5293C119.387 17.2793 118.906 18.1816 118.906 19.2363L116.797 19.2188C116.797 17.707 117.5 16.4004 118.906 15.2988C120.312 14.1855 122.041 13.6289 124.092 13.6289C126.213 13.6289 127.883 14.1621 129.102 15.2285C130.332 16.2832 130.965 17.7598 131 19.6582V28.6582C131 30.498 131.193 31.875 131.58 32.7891V33H129.33ZM122.721 31.4883C124.127 31.4883 125.381 31.1484 126.482 30.4688C127.596 29.7891 128.404 28.8809 128.908 27.7441V23.5605H125.146C123.049 23.584 121.408 23.9707 120.225 24.7207C119.041 25.459 118.449 26.4785 118.449 27.7793C118.449 28.8457 118.842 29.7305 119.627 30.4336C120.424 31.1367 121.455 31.4883 122.721 31.4883ZM145.414 15.7734C144.969 15.6914 144.494 15.6504 143.99 15.6504C142.678 15.6504 141.564 16.0195 140.65 16.7578C139.748 17.4844 139.104 18.5449 138.717 19.9395V33H136.625V13.9805H138.682L138.717 17.0039C139.83 14.7539 141.617 13.6289 144.078 13.6289C144.664 13.6289 145.127 13.7051 145.467 13.8574L145.414 15.7734ZM150.758 13.9805L150.828 17.2324C151.543 16.0605 152.434 15.1699 153.5 14.5605C154.566 13.9395 155.744 13.6289 157.033 13.6289C159.072 13.6289 160.59 14.2031 161.586 15.3516C162.582 16.5 163.086 18.2227 163.098 20.5195V33H161.006V20.502C160.994 18.8027 160.631 17.5371 159.916 16.7051C159.213 15.873 158.082 15.457 156.523 15.457C155.223 15.457 154.068 15.8672 153.061 16.6875C152.064 17.4961 151.326 18.5918 150.846 19.9746V33H148.754V13.9805H150.758Z" fill="#1C1C2E"/>
<rect x="74" width="2" height="36" fill="#FF7B7B"/>
</svg>
